<svg xmlns="http://www.w3.org/2000/svg" width="1024" height="640" viewBox="0 0 1024 640">
  <rect width="1024" height="640" fill="#f6f7fb"/>
  <rect x="110" y="64" width="804" height="512" rx="18" fill="#ffffff" stroke="#d8dbe8"/>
  <rect x="110" y="64" width="188" height="512" rx="18" fill="#f3f4fb"/>
  <rect x="134" y="108" width="140" height="38" rx="8" fill="#e0e7ff"/>
  <rect x="134" y="166" width="140" height="38" rx="8" fill="#ffffff"/>
  <rect x="134" y="224" width="140" height="38" rx="8" fill="#ffffff"/>
  <rect x="134" y="282" width="140" height="38" rx="8" fill="#ffffff"/>
  <text x="172" y="132" fill="#1f2a44" font-family="Arial, Helvetica, sans-serif" font-size="18" font-weight="700">连接配置</text>
  <text x="172" y="190" fill="#566179" font-family="Arial, Helvetica, sans-serif" font-size="18">笔记权限</text>
  <text x="172" y="248" fill="#566179" font-family="Arial, Helvetica, sans-serif" font-size="18">功能权限</text>
  <text x="172" y="306" fill="#566179" font-family="Arial, Helvetica, sans-serif" font-size="18">高级配置</text>
  <circle cx="152" cy="127" r="10" fill="#4f6bed"/>
  <rect x="330" y="106" width="528" height="90" rx="12" fill="#eef2ff" stroke="#d7dcf3"/>
  <text x="354" y="140" fill="#1f2a44" font-family="Arial, Helvetica, sans-serif" font-size="24" font-weight="700">思源 AI MCP 桥接</text>
  <text x="354" y="172" fill="#59657d" font-family="Arial, Helvetica, sans-serif" font-size="16">复制 MCP 客户端配置，再按笔记本和工具设置权限。</text>
  <rect x="330" y="226" width="250" height="116" rx="12" fill="#ffffff" stroke="#dde1ec"/>
  <rect x="608" y="226" width="250" height="116" rx="12" fill="#ffffff" stroke="#dde1ec"/>
  <text x="354" y="264" fill="#59657d" font-family="Arial, Helvetica, sans-serif" font-size="15">思源 API 地址</text>
  <text x="354" y="296" fill="#1f2a44" font-family="Arial, Helvetica, sans-serif" font-size="19" font-weight="700">http://127.0.0.1:6806</text>
  <text x="632" y="264" fill="#59657d" font-family="Arial, Helvetica, sans-serif" font-size="15">思源 API Token</text>
  <text x="632" y="296" fill="#1f2a44" font-family="Arial, Helvetica, sans-serif" font-size="19" font-weight="700">已自动读取</text>
  <rect x="330" y="372" width="528" height="128" rx="12" fill="#ffffff" stroke="#dde1ec"/>
  <text x="354" y="412" fill="#1f2a44" font-family="Arial, Helvetica, sans-serif" font-size="20" font-weight="700">功能权限</text>
  <rect x="354" y="440" width="112" height="36" rx="8" fill="#eff6ff" stroke="#bfd7ff"/>
  <rect x="486" y="440" width="112" height="36" rx="8" fill="#eff6ff" stroke="#bfd7ff"/>
  <rect x="618" y="440" width="112" height="36" rx="8" fill="#ffffff" stroke="#d8dbe8"/>
  <text x="384" y="464" fill="#1f2a44" font-family="Arial, Helvetica, sans-serif" font-size="16">读取</text>
  <text x="516" y="464" fill="#1f2a44" font-family="Arial, Helvetica, sans-serif" font-size="16">搜索</text>
  <text x="648" y="464" fill="#59657d" font-family="Arial, Helvetica, sans-serif" font-size="16">写入</text>
</svg>
